<?xml version="1.0" encoding="utf-8"?>
<!-- Generator: Adobe Illustrator 26.3.1, SVG Export Plug-In . SVG Version: 6.00 Build 0)  -->
<svg version="1.1" id="Layer_1" xmlns="http://www.w3.org/2000/svg" xmlns:xlink="http://www.w3.org/1999/xlink" x="0px" y="0px"
	 viewBox="0 0 399.5 399.5" style="enable-background:new 0 0 399.5 399.5;" xml:space="preserve">
<style type="text/css">
	.st0{fill:#00FFD9;}
	.st1{fill:#42FF2A;}
	.st2{fill:#FFFFFF;}
	.st3{fill:#F90303;}
	.st4{fill:#E81818;}
	.st5{fill:#DB1D14;}
	.st6{fill:#BC2820;}
</style>
<g id="XMLID_00000128466102372583680840000003955913629890488707_">
	<g>
		<path class="st0" d="M399.25,199.75c0,2.36-0.04,4.7-0.13,7.04l-1.37-0.04L377.02,190l19.73-16.25l0.8-0.11
			C398.67,182.18,399.25,190.9,399.25,199.75z"/>
		<path class="st0" d="M397.75,206.75l1.37,0.04c-0.36,10.61-1.56,21-3.52,31.13l-0.85-0.17l-18.67-18c0-0.01,0.01-0.02,0.01-0.02
			L397.75,206.75z"/>
		<path class="st1" d="M397.75,206.75l-21.66,12.98c0.76-6.72,1.16-13.55,1.16-20.48c0-3.1-0.08-6.19-0.23-9.25L397.75,206.75z"/>
		<path class="st0" d="M397.55,173.64l-0.8,0.11l-23-9.81l16-21.19l1.14-0.35C393.91,152.5,396.16,162.94,397.55,173.64z"/>
		<path class="st1" d="M396.75,173.75L377.02,190c-0.46-8.88-1.56-17.58-3.28-26.06h0.01L396.75,173.75z"/>
		<path class="st1" d="M394.75,237.75l-24.27,10.32c2.6-9.16,4.49-18.62,5.6-28.32L394.75,237.75z"/>
		<path class="st1" d="M389.75,142.75l-16,21.19h-0.01c-1.88-9.39-4.51-18.5-7.81-27.29L389.75,142.75z"/>
		<path class="st0" d="M395.6,237.92c-2.35,12.12-5.79,23.85-10.23,35.08l-0.62-0.25l-14.27-24.68l24.27-10.32L395.6,237.92z"/>
		<path class="st0" d="M378.51,111.08c4.97,10,9.12,20.47,12.38,31.32l-1.14,0.35l-23.82-6.1l11.32-25.27L378.51,111.08z"/>
		<path class="st0" d="M378.51,111.08l-1.26,0.3l-25.26-3.59l8.76-24.04l0.87-0.63C367.98,91.93,373.64,101.28,378.51,111.08z"/>
		<path class="st1" d="M377.25,111.38l-11.32,25.27c-3.79-10.09-8.47-19.74-13.94-28.86L377.25,111.38z"/>
		<path class="st2" d="M377.02,190c0.15,3.06,0.23,6.15,0.23,9.25c0,6.93-0.4,13.76-1.16,20.48l-0.02,0.01l0.01,0.01
			c-1.11,9.7-3,19.16-5.6,28.32c-2.83,9.93-6.5,19.5-10.91,28.63c-4,8.25-8.61,16.14-13.78,23.62c-5.46,7.91-11.55,15.36-18.2,22.27
			c-5.96,6.21-12.38,11.98-19.18,17.27h-0.01v0.01c-8.27,6.43-17.12,12.14-26.46,17.05h-0.01v0.01
			c-8.77,4.61-17.98,8.51-27.54,11.62l-0.02-0.01l-0.01,0.02c-8.92,2.9-18.14,5.11-27.62,6.58c-7.91,1.23-15.99,1.93-24.21,2.08
			c-1.09,0.02-2.18,0.03-3.28,0.03c-8.97,0-17.79-0.66-26.4-1.95c-10.16-1.51-20.05-3.88-29.57-7.03
			c-9.14-3.02-17.94-6.76-26.35-11.16v-0.01h-0.01c-9.81-5.12-19.08-11.13-27.71-17.93c-10.25-8.07-19.58-17.24-27.83-27.33v-0.01
			h-0.01c-6.49-7.94-12.31-16.45-17.37-25.44l0.01-0.02h-0.02c-5.6-9.96-10.27-20.5-13.89-31.53l0.01-0.03h-0.02
			c-3-9.15-5.28-18.63-6.78-28.37l0.01-0.01h-0.01c-1.36-8.86-2.06-17.94-2.06-27.18c0-10.1,0.84-20.01,2.46-29.65l0.02-0.02
			l-0.02-0.01c1.57-9.33,3.86-18.41,6.82-27.19c2.88-8.54,6.38-16.79,10.47-24.69c3.91-7.59,8.36-14.85,13.28-21.75h0.01v-0.01
			c5.43-7.6,11.44-14.76,17.97-21.4c7.49-7.64,15.68-14.6,24.45-20.79l0.04,0.01v-0.04c8.85-6.25,18.29-11.71,28.23-16.28l0.02,0.01
			l0.01-0.02c9.18-4.22,18.78-7.68,28.73-10.3c9.46-2.49,19.22-4.23,29.23-5.14l0.02,0.02l0.01-0.02
			c5.35-0.48,10.77-0.73,16.25-0.73c4.01,0,8,0.13,11.94,0.4l0.01,0.01l0.01-0.01c9.49,0.62,18.77,2,27.78,4.06
			c9.48,2.15,18.67,5.07,27.51,8.67l0.01,0.03l0.02-0.01h0.01c9.32,3.81,18.25,8.39,26.7,13.65v0.01h0.01
			c8.14,5.07,15.84,10.78,23.02,17.05v0.02h0.01c6.42,5.61,12.44,11.67,18.01,18.14v0.01h0.01c6.56,7.63,12.48,15.83,17.69,24.51
			c5.47,9.12,10.15,18.77,13.94,28.86c3.3,8.79,5.93,17.9,7.81,27.29C375.46,172.42,376.56,181.12,377.02,190z"/>
		<path class="st2" d="M376.09,219.73c0,0-0.01,0.01-0.01,0.02l-0.01-0.01L376.09,219.73z"/>
		<path class="st0" d="M370.75,300.75l-11.18-24.05l25.18-3.95l0.62,0.25c-3.87,9.81-8.5,19.24-13.82,28.23L370.75,300.75z"/>
		<path class="st1" d="M370.48,248.07l14.27,24.68l-25.18,3.95C363.98,267.57,367.65,258,370.48,248.07z"/>
		<path class="st0" d="M361.62,83.12l-0.87,0.63l-26.45-0.47h-0.01v-0.01l6.46-23.52l0.57-0.56
			C348.7,66.61,355.49,74.61,361.62,83.12z"/>
		<path class="st1" d="M360.75,83.75l-8.76,24.04c-5.21-8.68-11.13-16.88-17.69-24.51L360.75,83.75z"/>
		<path class="st1" d="M359.57,276.7l11.18,24.05l-24.96-0.43C350.96,292.84,355.57,284.95,359.57,276.7z"/>
		<path class="st0" d="M351.75,327.75l-5.96-27.43l24.96,0.43l0.8,0.48c-5.65,9.55-12.08,18.59-19.19,27.03L351.75,327.75z"/>
		<path class="st1" d="M345.79,300.32l5.96,27.43l-24-5l-0.16-0.16C334.24,315.68,340.33,308.23,345.79,300.32z"/>
		<path class="st0" d="M318.17,39.19c8.22,6.07,15.97,12.76,23.15,20l-0.57,0.56l-24.47,5.38c0,0,0-0.01-0.01-0.02l1.48-25.36
			L318.17,39.19z"/>
		<path class="st1" d="M340.75,59.75l-6.46,23.52c-5.57-6.47-11.59-12.53-18.01-18.14L340.75,59.75z"/>
		<path class="st0" d="M330.75,348.75l-3-26l24,5l0.61,0.51c-6.43,7.61-13.41,14.74-20.88,21.32L330.75,348.75z"/>
		<path class="st0" d="M330.75,348.75l0.73,0.83c-7.34,6.45-15.15,12.38-23.38,17.71l-0.35-0.54l0.65-26.88
			c0.01,0,0.01-0.01,0.01-0.01L330.75,348.75z"/>
		<path class="st1" d="M327.75,322.75l3,26l-22.34-8.89c6.8-5.29,13.22-11.06,19.18-17.27L327.75,322.75z"/>
		<path class="st0" d="M318.17,39.19l-0.42,0.56l-24.5,8.31h-0.01v-0.01l-4.49-25.3l0.64-1.27
			C299.51,26.57,309.13,32.5,318.17,39.19z"/>
		<path class="st1" d="M317.75,39.75l-1.48,25.36c-7.18-6.27-14.88-11.98-23.02-17.05L317.75,39.75z"/>
		<path class="st2" d="M316.27,65.11c0.01,0.01,0.01,0.02,0.01,0.02h-0.01V65.11z"/>
		<path class="st2" d="M308.41,339.86c0,0,0,0.01-0.01,0.01v-0.01H308.41z"/>
		<path class="st1" d="M308.4,339.87l-0.65,26.88l-25.81-9.83C291.28,352.01,300.13,346.3,308.4,339.87z"/>
		<path class="st0" d="M307.75,366.75l0.35,0.54c-9.14,5.93-18.8,11.12-28.9,15.51l-0.45-1.05l3.18-24.82
			c0.01,0,0.01-0.01,0.01-0.01L307.75,366.75z"/>
		<path class="st1" d="M288.75,22.75l4.49,25.3c-8.45-5.26-17.38-9.84-26.7-13.65L288.75,22.75z"/>
		<path class="st0" d="M289.39,21.48l-0.64,1.27L266.54,34.4h-0.01c-0.01,0-0.02-0.01-0.03-0.02l-7.75-23.63l0.32-1.53
			C269.58,12.49,279.71,16.6,289.39,21.48z"/>
		<path class="st2" d="M281.94,356.92c0,0,0,0.01-0.01,0.01L281.94,356.92L281.94,356.92z"/>
		<path class="st1" d="M281.93,356.93l-3.18,24.82l-24.36-13.2C263.95,365.44,273.16,361.54,281.93,356.93z"/>
		<path class="st0" d="M278.75,381.75l0.45,1.05c-10.03,4.36-20.48,7.92-31.29,10.59l-0.16-0.64l6.61-24.19
			c0.01-0.01,0.02-0.01,0.03-0.01L278.75,381.75z"/>
		<path class="st2" d="M266.5,34.38c0.01,0.01,0.02,0.02,0.03,0.02l-0.02,0.01L266.5,34.38z"/>
		<path class="st1" d="M258.75,10.75l7.75,23.63c-8.84-3.6-18.03-6.52-27.51-8.67L258.75,10.75z"/>
		<path class="st0" d="M259.07,9.22l-0.32,1.53l-19.76,14.96L226.75,3.75l0.23-1.65C237.99,3.6,248.71,6,259.07,9.22z"/>
		<path class="st2" d="M254.39,368.55c-0.01,0-0.02,0-0.03,0.01l0.01-0.02L254.39,368.55z"/>
		<path class="st1" d="M254.36,368.56l-6.61,24.19l-21.01-17.61C236.22,373.67,245.44,371.46,254.36,368.56z"/>
		<path class="st0" d="M247.75,392.75l0.16,0.64c-9.74,2.42-19.76,4.12-30,5.04l-0.16-1.68l8.99-21.61L247.75,392.75z"/>
		<path class="st1" d="M226.75,3.75l12.24,21.96c-9.01-2.06-18.29-3.44-27.78-4.06L226.75,3.75z"/>
		<path class="st0" d="M226.98,2.1l-0.23,1.65l-15.54,17.9c0-0.01-0.01-0.01-0.02,0l-16.44-19.9l-0.03-1.43
			c1.67-0.05,3.35-0.07,5.03-0.07C208.99,0.25,218.08,0.88,226.98,2.1z"/>
		<path class="st1" d="M226.74,375.14l-8.99,21.61l-15.22-19.5v-0.03C210.75,377.07,218.83,376.37,226.74,375.14z"/>
		<path class="st0" d="M217.75,396.75l0.16,1.68c-5.98,0.54-12.04,0.82-18.16,0.82c-4.4,0-8.76-0.14-13.08-0.42l0.08-1.08
			l15.78-20.5L217.75,396.75z"/>
		<path class="st2" d="M211.21,21.65l-0.01,0.01l-0.01-0.01C211.2,21.64,211.21,21.64,211.21,21.65z"/>
		<path class="st1" d="M194.75,1.75l16.44,19.9c-3.94-0.27-7.93-0.4-11.94-0.4c-5.48,0-10.9,0.25-16.25,0.73L194.75,1.75z"/>
		<path class="st1" d="M199.25,377.25c1.1,0,2.19-0.01,3.28-0.03v0.03l-15.78,20.5l-13.9-22.45
			C181.46,376.59,190.28,377.25,199.25,377.25z"/>
		<path class="st0" d="M194.72,0.32l0.03,1.43L183,21.98c-0.01,0-0.02,0-0.03,0L164.75,4.75l-0.24-1.39
			C174.35,1.6,184.44,0.57,194.72,0.32z"/>
		<path class="st0" d="M172.85,375.3l13.9,22.45l-0.08,1.08c-12.1-0.79-23.91-2.65-35.32-5.49l0.4-1.59L172.85,375.3z"/>
		<path class="st2" d="M183,21.98L182.99,22l-0.02-0.02C182.98,21.98,182.99,21.98,183,21.98z"/>
		<path class="st1" d="M164.75,4.75l18.22,17.23c-10.01,0.91-19.77,2.65-29.23,5.14L164.75,4.75z"/>
		<path class="st1" d="M172.85,375.3l-21.1,16.45l-8.47-23.48C152.8,371.42,162.69,373.79,172.85,375.3z"/>
		<path class="st0" d="M164.51,3.36l0.24,1.39l-11.01,22.37l-20.99-13.37l-0.63-1.74C142.54,8.25,153.36,5.34,164.51,3.36z"/>
		<path class="st1" d="M132.75,13.75l20.99,13.37c-9.95,2.62-19.55,6.08-28.73,10.3L132.75,13.75z"/>
		<path class="st0" d="M143.28,368.27l8.47,23.48l-0.4,1.59c-10.42-2.6-20.52-6.01-30.21-10.18l0.61-1.41L143.28,368.27z"/>
		<path class="st1" d="M143.28,368.27l-21.53,13.48l-4.82-24.64C125.34,361.51,134.14,365.25,143.28,368.27z"/>
		<path class="st0" d="M132.12,12.01l0.63,1.74l-7.74,23.67c-0.01,0.01-0.02,0.01-0.03,0.01l-27.23-7.68l-0.66-1.1
			C108.12,22.03,119.84,16.43,132.12,12.01z"/>
		<path class="st2" d="M125.01,37.42L125,37.44l-0.02-0.01C124.99,37.43,125,37.43,125.01,37.42z"/>
		<path class="st1" d="M97.75,29.75l27.23,7.68C115.04,42,105.6,47.46,96.75,53.71L97.75,29.75z"/>
		<path class="st0" d="M116.93,357.11l4.82,24.64l-0.61,1.41c-11.59-4.97-22.6-11-32.93-17.98l2.54-0.43l26.17-7.65
			C116.92,357.1,116.92,357.11,116.93,357.11z"/>
		<path class="st2" d="M116.93,357.1v0.01c-0.01,0-0.01-0.01-0.01-0.01H116.93z"/>
		<path class="st1" d="M116.92,357.1l-26.17,7.65l-2-25l0.46-0.58C97.84,345.97,107.11,351.98,116.92,357.1z"/>
		<path class="st0" d="M97.09,28.65l0.66,1.1l-1,23.96c-0.01,0-0.03,0.01-0.04,0.03l-25.96-4.99l-0.59-0.68
			C78.56,40.88,87.57,34.38,97.09,28.65z"/>
		<path class="st2" d="M96.75,53.71v0.04l-0.04-0.01C96.72,53.72,96.74,53.71,96.75,53.71z"/>
		<path class="st1" d="M70.75,48.75l25.96,4.99c-8.77,6.19-16.96,13.15-24.45,20.79L70.75,48.75z"/>
		<path class="st0" d="M88.75,339.75l2,25l-2.54,0.43c-9.63-6.5-18.66-13.83-26.99-21.88l0.53-0.55L88.75,339.75z"/>
		<path class="st1" d="M89.21,339.17l-0.46,0.58l-27,3l-0.37-30.91C69.63,321.93,78.96,331.1,89.21,339.17z"/>
		<path class="st1" d="M47.75,72.75l24.51,1.78c-6.53,6.64-12.54,13.8-17.97,21.4L47.75,72.75z"/>
		<path class="st0" d="M61.38,311.84l0.37,30.91l-0.53,0.55c-9.42-9.08-17.95-19.09-25.43-29.87l0.96-0.68l24.62-0.92h0.01V311.84z"
			/>
		<path class="st1" d="M61.37,311.83l-24.62,0.92L44,286.39C49.06,295.38,54.88,303.89,61.37,311.83z"/>
		<path class="st0" d="M47.75,72.75l6.54,23.18v0.01h-0.01l-24.53,1.81l-1.1-0.66c5.35-8.9,11.38-17.34,18-25.26L47.75,72.75z"/>
		<path class="st1" d="M29.75,97.75l24.53-1.81c-4.92,6.9-9.37,14.16-13.28,21.75L29.75,97.75z"/>
		<path class="st0" d="M47.75,72.75l-1.1-0.92c7.17-8.56,15.03-16.51,23.51-23.76l0.59,0.68l1.51,25.78L47.75,72.75z"/>
		<path class="st2" d="M44.01,286.37L44,286.39c0-0.01,0-0.01-0.01-0.02H44.01z"/>
		<path class="st1" d="M43.99,286.37l-24.24-2.62l10.35-28.91C33.72,265.87,38.39,276.41,43.99,286.37z"/>
		<path class="st0" d="M29.75,97.75L41,117.69l-25.25,7.06l-0.8-0.32c3.88-9.5,8.47-18.64,13.7-27.34L29.75,97.75z"/>
		<path class="st1" d="M15.75,124.75L41,117.69c-4.09,7.9-7.59,16.15-10.47,24.69L15.75,124.75z"/>
		<path class="st0" d="M44,286.39l-7.25,26.36l-0.96,0.68c-6.41-9.23-12.06-19.02-16.87-29.28l0.83-0.4l24.24,2.62
			C44,286.38,44,286.38,44,286.39z"/>
		<path class="st0" d="M15.75,124.75l14.78,17.63L6.75,154.75l-1.39-0.06c2.41-10.42,5.63-20.53,9.59-30.26L15.75,124.75z"/>
		<path class="st1" d="M6.75,154.75l23.78-12.37c-2.96,8.78-5.25,17.86-6.82,27.19L6.75,154.75z"/>
		<path class="st2" d="M30.11,254.81l-0.01,0.03c0-0.01,0-0.02-0.01-0.03H30.11z"/>
		<path class="st1" d="M30.09,254.81l-21.34-4.06l14.56-24.31C24.81,236.18,27.09,245.66,30.09,254.81z"/>
		<path class="st2" d="M23.73,169.58l-0.02,0.02c0-0.01,0-0.02,0-0.03L23.73,169.58z"/>
		<path class="st0" d="M6.75,154.75l16.96,14.82c0,0.01,0,0.02,0,0.03L1.75,186.75l-1.08-0.08c0.71-10.92,2.29-21.6,4.69-31.98
			L6.75,154.75z"/>
		<path class="st1" d="M1.75,186.75l21.96-17.15c-1.62,9.64-2.46,19.55-2.46,29.65L1.75,186.75z"/>
		<path class="st2" d="M23.32,226.43l-0.01,0.01c0-0.01,0-0.01,0-0.01H23.32z"/>
		<path class="st0" d="M23.31,226.43C23.31,226.43,23.31,226.43,23.31,226.43L8.75,250.75l-1.79,0.47
			c-2.88-10.77-4.87-21.9-5.89-33.31l1.68-0.16L23.31,226.43z"/>
		<path class="st1" d="M23.31,226.43l-20.56-8.68l18.5-18.5C21.25,208.49,21.95,217.57,23.31,226.43z"/>
		<path class="st0" d="M21.25,199.25l-18.5,18.5l-1.68,0.16c-0.54-5.98-0.82-12.04-0.82-18.16c0-4.4,0.14-8.76,0.42-13.08l1.08,0.08
			L21.25,199.25z"/>
		<path class="st0" d="M18.92,284.15c-4.9-10.51-8.93-21.52-11.96-32.93l1.79-0.47l21.34,4.06c0.01,0.01,0.01,0.02,0.01,0.03
			l-10.35,28.91L18.92,284.15z"/>
	</g>
	<g>
	</g>
</g>
<g id="Kanohi_Hau_Red">
	<g>
		<g id="XMLID_00000090974155968202241230000006312637879846789515_">
			<g>
				<path class="st3" d="M316.42,261.95v31.41l-3.97,14.04l-2.76,8.94l-5.9,0.4l-0.06-0.93c-1.09-4.43-4.97-6.79-8.5-8.96
					c-1.79-1.09-3.77-1.83-5.7-2.6c-4.01-1.63-7.91-3.52-11.68-5.64c-4.01-2.28-7.95-4.89-12.44-6.04c-1.99-0.52-4.05-0.73-6.1-1.05
					c-9.26-1.43-18.18-4.97-25.88-10.25c2.36-2.46,4.29-3.77,5.86-6.87c1.33-2.62,2.38-5.36,3.42-8.1c1.03-2.68,2.05-5.38,3.08-8.06
					c0.81-2.15,1.63-4.31,1.81-6.58c0.04-0.5,0.04-1.01,0.02-1.51c2.72,1.75,2.6,3.4,4.63,4.37c4.35,2.05,8.62,4.33,12.59,7.03
					c6.91,4.67,13.57,10.83,21.87,11.4c1.79,0.12,3.56-0.04,5.34-0.22c9.3-0.93,15.43-1.07,23.38-11v-0.02
					C315.77,261.77,316.1,261.85,316.42,261.95z"/>
				<path class="st4" d="M308.79,260.79c0.64-3.26,0.6-6.59,0.56-9.91c-0.12-8.52-0.22-17.04-0.34-25.59
					c-0.08-6.44-0.58-14.28-3.1-20.3c0.66,0.89,2.03,1.73,2.84,1.95c1.91,0.56,3.66,1.55,5.12,2.88l2.56,35.99v16.13
					c-0.34-0.1-0.66-0.18-0.99-0.26c-2.19-0.56-4.43-0.77-6.69-0.66C308.76,260.95,308.79,260.87,308.79,260.79z"/>
				<path class="st5" d="M315.43,261.69v0.02c-7.95,9.93-14.08,10.07-23.38,11c-1.79,0.18-3.56,0.34-5.34,0.22
					c-8.3-0.58-14.96-6.73-21.87-11.4c-3.97-2.7-8.24-4.99-12.59-7.03c-2.03-0.97-1.91-2.62-4.63-4.37
					c-0.02-1.07-0.16-2.17-0.36-3.24c-0.18-1.05-0.4-2.09-0.64-3.12c1.33-0.26,5.78-0.73,6.58-0.48
					c11.28,3.52,19.59,13.33,30.55,17.78c3.87,1.57,7.99,2.44,12.1,3.12c4.41,0.73,10.37-0.26,12.93-3.4c0,0.08-0.02,0.16-0.04,0.24
					C311.01,260.91,313.26,261.13,315.43,261.69z"/>
				<path class="st5" d="M313.76,208.65l0.1,1.17c-1.47-1.33-3.22-2.32-5.12-2.88c-0.81-0.22-2.19-1.05-2.84-1.95
					c0-0.02,0-0.02-0.02-0.02c-0.12-0.3-0.24-0.6-0.38-0.87c-2.52-6.3-4.91-12.81-7.45-19.11c-1.43-3.56-2.88-7.15-4.97-10.37
					c-2.7-4.15-5.24-9.75-10.01-10.98c-0.14-0.75-0.54-1.45-1.15-1.95l-2.9-2.34c-0.26-0.2-0.54-0.38-0.81-0.5
					c4.07,0.75,8.36,2.54,10.97,4.95C301.98,175.76,309.41,192.06,313.76,208.65z"/>
				<path class="st3" d="M173.53,168.33l-5.76,0.02c-0.85,0-1.73-0.14-2.54-0.42l-10.69-3.56l-13.9-3.97l-8.38-0.93l-9.5-1.05h-5.96
					c-0.1,0-0.18,0-0.28,0h-0.91l-0.02,0.02c-4.65,0.24-9.5,2.28-12.79,5.36c-12.93,12.06-20.36,28.54-24.73,45.27l-0.36-0.02
					l1.35-18.85v-53.63l3.97-21.85L94.95,88.9l21.85-21.85l25.82-13.9l28.8-4.97h23.6h1.49h23.58l28.8,4.97l25.82,13.9l21.85,21.85
					l11.92,25.82l3.97,21.85v53.63l1.31,18.45c-4.35-16.59-11.78-32.9-24.59-44.85c-2.6-2.4-6.89-4.19-10.97-4.95
					c-0.56-0.3-1.17-0.44-1.79-0.44h-2.42c-0.1,0-0.18,0-0.28,0h-3l-9.48,1.05l-8.4,0.93l-13.9,3.97l-10.77,3.6
					c-0.75,0.26-1.55,0.38-2.34,0.38l-6-0.02l-0.3,0.44l-0.44-0.3c-15.1,1.25-30.73,2.44-45.41-0.12l-0.02-0.02L173.53,168.33
					L173.53,168.33z M241.17,80.74c1.07-1.07,1.33-2.7,0.66-4.03l-0.85-1.73l-3.97-3.97l-7.95-5.96l-8.94-3.1l-6.95-0.87h-15.91
					h-16.88l-6.95,0.87l-8.94,3.1l-7.95,5.96l-3.97,3.97l-0.85,1.73c-0.68,1.33-0.42,2.96,0.66,4.03l0.2,0.2h2.4
					c0.97,0,1.85-0.54,2.28-1.41l1.27-2.56l1.57-2.01c-0.95,1.51-0.68,3.48,0.77,4.69l1.23,1.03c0.75,0.66,1.75,0.99,2.76,0.99
					h31.41h31.43c1.01,0,2.01-0.34,2.76-0.99l1.23-1.03c1.43-1.21,1.73-3.14,0.79-4.65l1.53,1.97l2.28,2.56
					c0.44,0.87,1.33,1.41,2.3,1.41h2.38L241.17,80.74z"/>
				<path class="st3" d="M288.29,190.87c-3.97,3.14-8.6,5.34-13.31,7.11c-6.46,2.44-13.19,4.15-19.59,6.73
					c-1.15,0.48-2.36,1.03-2.92,2.15c-0.89,1.75,0.34,3.81,1.51,5.4c0.97,1.29,1.99,2.62,3.48,3.24c1.05,0.44,2.2,0.46,3.34,0.46
					c2.76,0.04,5.52,0.06,8.28,0.08c2.62,0.04,5.26,0.06,7.87-0.24c3.2-0.38,6.3-1.25,9.4-2.11c2.7-0.75,5.52-1.59,7.55-3.52
					c0.3-0.28,0.58-0.6,0.81-0.91c0.91-1.13,1.61-2.48,2.22-3.81c1.73-3.77,3.12-8.06,1.93-12.04c-0.64-2.09-2.2-4.47-4.21-5.48
					c-2.7-1.35-3.28,0.36-5.38,2.17C288.93,190.38,288.61,190.63,288.29,190.87z M295.67,225.02c-0.14,0.04-0.26,0.08-0.38,0.1
					c-2.24,0.42-4.53,0.32-6.79,0.22c-5.48-0.22-10.98-0.46-16.47-0.7c-1.97-0.08-3.99-0.16-5.86,0.46
					c-1.87,0.64-3.6,2.11-3.93,4.05c-0.38,2.22,1.11,4.35,2.76,5.92c0.52,0.5,1.07,0.99,1.73,1.33c1.43,0.73,3.12,0.72,4.73,0.68
					c6.26-0.16,12.53-0.3,18.81-0.46c2.44-0.06,4.91-0.12,7.31-0.56c0.87-0.14,1.73-0.34,2.56-0.6c1.35-0.44,2.74-1.07,3.54-2.26
					c0.7-1.07,0.81-2.4,0.83-3.67c0-1.71,0.14-7.49-1.89-7.73C301.32,221.66,297.67,224.38,295.67,225.02z M279.71,172.14l3.1-6.36
					c0.34-0.7,0.42-1.43,0.26-2.15c4.77,1.23,7.31,6.83,10.01,10.98c2.09,3.22,3.54,6.81,4.97,10.37c2.54,6.3,4.93,12.81,7.45,19.11
					c0.02,0.28,0.16,0.58,0.38,0.87c0.02,0,0.02,0,0.02,0.02c2.52,6.02,3.02,13.87,3.1,20.3c0.12,8.54,0.22,17.06,0.34,25.59
					c0.04,3.32,0.08,6.65-0.56,9.91c-2.56,3.14-8.52,4.13-12.93,3.4c-4.11-0.68-8.22-1.55-12.1-3.12
					c-10.97-4.45-19.27-14.26-30.55-17.78c-0.79-0.26-5.24,0.22-6.58,0.48c-0.7-2.84-1.59-5.62-2.48-8.4
					c-3.79-11.88-7.61-23.76-11.4-35.62c-1.09-3.38-2.2-6.85-4.41-9.63c-0.79-0.99-3.48-4.75-5.14-5.68l0.06-0.1l7.75,3.87
					l10.89,1.99h6.99l8.44-2.3l13.83-5.14l7.53-8.44L279.71,172.14z M299.2,255.91c3.4-2.56,9.08-6.69,1.85-7.75
					c-1.99-0.3-4.03-0.22-6.06-0.2c-2.52,0-5.05-0.06-7.43-1.03c-1.91-0.77-4.03-1.35-6.06-1.11c-2.11,0.24-3.3,1.31-4.57,3.02
					c-0.18,0.24-0.36,0.5-0.42,0.79c-0.06,0.38,0.08,0.75,0.26,1.07c1.57,3.04,5.14,4.31,8.4,5.32c1.69,0.52,3.4,1.05,5.09,1.57
					c1.39,0.44,2.84,0.87,4.29,0.7c0.38-0.06,0.75-0.14,1.11-0.26C296.96,257.58,298.11,256.72,299.2,255.91z"/>
				<path class="st5" d="M302.62,221.8c2.03,0.24,1.89,6.02,1.89,7.73c-0.02,1.27-0.14,2.6-0.83,3.67
					c-0.79,1.19-2.19,1.83-3.54,2.26c-0.83,0.26-1.69,0.46-2.56,0.6l-0.02-0.18c1.21-2.88,0.42-7.25-1.37-9.81
					c-0.22-0.3-0.48-0.68-0.52-1.05C297.67,224.38,301.32,221.66,302.62,221.8z"/>
				<path class="st6" d="M230.86,284.35c0.91-1.25,1.77-2.24,2.58-3.1c7.71,5.28,16.63,8.82,25.88,10.25
					c2.05,0.32,4.11,0.54,6.1,1.05c4.49,1.15,8.42,3.75,12.44,6.04c3.77,2.13,7.67,4.01,11.68,5.64c1.93,0.77,3.91,1.51,5.7,2.6
					c3.54,2.17,7.41,4.53,8.5,8.96l0.06,0.93l-9.22,0.6l-11.92-3.97l-17.88-3.97l-67.54,0.2h-2.98l-67.54-0.2l-17.88,3.97
					l-11.92,3.97l-11.06-0.73l0.06-0.79c1.07-4.43,4.97-6.79,8.5-8.96c1.79-1.09,3.75-1.83,5.7-2.6c4.01-1.63,7.91-3.52,11.68-5.64
					c4.01-2.28,7.95-4.89,12.44-6.04c1.99-0.52,4.05-0.73,6.1-1.05c9.46-1.47,18.55-5.12,26.4-10.61l0.32-0.56
					c0.99,0.83,2.52,1.75,5.01,3.02c0.54,0.75,1.11,1.49,1.73,2.19c7.21,8.14,21.22,11.92,31.96,11.92c10.89,0,26.8-3.6,34.05-11.92
					c0.34-0.4,0.68-0.81,0.99-1.23L230.86,284.35z"/>
				<path class="st5" d="M301.05,248.16c7.23,1.05,1.55,5.18-1.85,7.75c-1.09,0.81-2.24,1.67-3.54,2.13l-0.1-0.3
					c1.47-2.6-0.89-6.77-0.58-9.73v-0.04C297.02,247.94,299.07,247.86,301.05,248.16z"/>
				<path class="st5" d="M298.85,193.41c1.19,3.97-0.2,8.26-1.93,12.04c-0.62,1.33-1.31,2.68-2.22,3.81l-0.04-0.04
					c0.48-2.88-0.1-5.82-0.7-8.68c-0.16-0.75-0.3-1.51-0.6-2.22c-0.38-0.91-0.95-1.73-1.53-2.52c-1.19-1.65-2.38-3.28-3.56-4.93
					c0.34-0.24,0.66-0.5,0.97-0.77c2.11-1.81,2.68-3.52,5.38-2.17C296.64,188.95,298.21,191.33,298.85,193.41z"/>
				<path class="st6" d="M283.07,163.64c0.16,0.72,0.08,1.45-0.26,2.15l-3.1,6.36c0.54-2.19-1.55-6.69-3.36-7.87
					c-4.49-2.86-9.77-4.43-15.08-4.45l-0.04-0.36l9.48-1.05h3c0.1,0,0.18,0,0.28,0c1.31,0,2.74,0.14,4.21,0.44
					c0.28,0.12,0.56,0.3,0.81,0.5l2.9,2.34C282.54,162.19,282.93,162.88,283.07,163.64z"/>
				<path class="st4" d="M233.44,281.25c-0.81,0.85-1.67,1.85-2.58,3.1l-0.06-0.04c6.42-8.68,5.18-21.71,5.18-34.52
					c0-26.32-18-47.67-40.23-47.67c-22.21,0-40.23,21.35-40.23,47.67c0,12.49,0.48,24.91,6.54,33.57c-2.48-1.27-4.01-2.19-5.01-3.02
					c-2.01-1.69-1.91-3.02-3.4-5.96c-1.33-2.62-2.36-5.36-3.42-8.1c-1.01-2.68-2.05-5.38-3.06-8.06c-0.81-2.15-1.63-4.31-1.83-6.58
					c-0.04-0.5-0.04-1.01-0.02-1.51c0.02-1.07,0.16-2.17,0.36-3.24c0.18-1.05,0.4-2.09,0.66-3.12c0.68-2.84,1.57-5.62,2.46-8.4
					c3.81-11.88,7.61-23.76,11.42-35.62c1.07-3.38,2.2-6.85,4.41-9.63c0.89-1.13,4.83-4.81,5.78-5.88l3.75-4.97l1.41-1.67
					c0.72-0.83,1.07-1.93,0.97-3.02l-0.08-1.07c-0.06-0.77-0.32-1.53-0.75-2.19l-2.05-2.98c14.68,2.56,30.31,1.37,45.41,0.12
					l0.44,0.3l-1.71,2.5c-0.48,0.7-0.75,1.49-0.83,2.34l-0.04,0.64c-0.12,1.31,0.3,2.6,1.15,3.62l1.21,1.41l3.73,4.97l0.2,0.1
					l-0.06,0.1c1.67,0.93,4.35,4.69,5.14,5.68c2.2,2.78,3.32,6.26,4.41,9.63c3.79,11.86,7.61,23.74,11.4,35.62
					c0.89,2.78,1.79,5.56,2.48,8.4c0.24,1.03,0.46,2.07,0.64,3.12c0.2,1.07,0.34,2.17,0.36,3.24c0.02,0.5,0.02,1.01-0.02,1.51
					c-0.18,2.26-0.99,4.43-1.81,6.58c-1.03,2.68-2.05,5.38-3.08,8.06c-1.03,2.74-2.09,5.48-3.42,8.1
					C237.73,277.48,235.8,278.79,233.44,281.25z"/>
				<path class="st5" d="M241.82,76.71c0.68,1.33,0.42,2.96-0.66,4.03l-0.2,0.2h-2.38c-0.97,0-1.87-0.54-2.3-1.41l-2.28-2.56
					L232.46,75c-0.16-0.3-0.38-0.6-0.66-0.85l-4.79-4.43c-0.5-0.46-1.09-0.79-1.77-0.97l-9.14-2.46c-0.38-0.1-0.75-0.16-1.15-0.16
					h-18.71h-18.69c-0.4,0-0.77,0.06-1.15,0.16l-9.16,2.46c-0.66,0.18-1.25,0.52-1.75,0.97l-4.79,4.43
					c-0.26,0.26-0.48,0.52-0.64,0.81l-1.57,2.01l-1.27,2.56c-0.44,0.87-1.31,1.41-2.28,1.41h-2.4l-0.2-0.2
					c-1.07-1.07-1.33-2.7-0.66-4.03l0.85-1.73l3.97-3.97l7.95-5.96l8.94-3.1l6.95-0.87h16.88h15.91l6.95,0.87l8.94,3.1l7.95,5.96
					l3.97,3.97L241.82,76.71z"/>
				<path class="st5" d="M162.07,283.36c-6.06-8.66-6.54-21.08-6.54-33.57c0-26.32,18.02-47.67,40.23-47.67
					c22.23,0,40.23,21.35,40.23,47.67c0,12.81,1.23,25.84-5.18,34.52c-0.32,0.42-0.66,0.83-0.99,1.23
					c-7.25,8.32-23.16,11.92-34.05,11.92c-10.75,0-24.75-3.77-31.96-11.92C163.18,284.85,162.6,284.12,162.07,283.36z
					 M222.26,279.01c5.76-6.91,4.73-17.82,4.73-28.53c0-21.02-13.77-38.06-30.75-38.06s-30.77,17.04-30.77,38.06
					c0,10.85,0.44,21.59,6.32,28.53c5.52,6.52,16.23,9.51,24.45,9.51C204.54,288.52,216.72,285.66,222.26,279.01z"/>
				<path class="st3" d="M226.99,250.48c0,10.71,1.03,21.61-4.73,28.53c-5.54,6.65-17.72,9.51-26.02,9.51
					c-8.22,0-18.93-3-24.45-9.51c-5.88-6.93-6.32-17.68-6.32-28.53c0-21.02,13.79-38.06,30.77-38.06S226.99,229.47,226.99,250.48z"
					/>
				<path class="st3" d="M96.21,225.02c-2.01-0.64-5.64-3.36-6.95-3.22c-2.03,0.24-1.89,6.02-1.89,7.73
					c0.02,1.27,0.14,2.6,0.83,3.67c0.79,1.19,2.19,1.83,3.54,2.26c1.03,0.32,2.09,0.54,3.16,0.7c2.2,0.34,4.47,0.4,6.71,0.46
					c6.28,0.16,12.55,0.3,18.81,0.46c1.61,0.04,3.3,0.06,4.73-0.68c0.66-0.34,1.21-0.83,1.73-1.33c1.65-1.57,3.14-3.69,2.76-5.92
					c-0.34-1.95-2.07-3.42-3.93-4.05c-1.87-0.62-3.89-0.54-5.86-0.46c-5.48,0.24-10.98,0.48-16.47,0.7c-2.26,0.1-4.55,0.2-6.79-0.22
					C96.48,225.1,96.35,225.06,96.21,225.02z M104.26,190.87c-0.34-0.24-0.66-0.5-0.97-0.77c-2.11-1.81-2.68-3.52-5.38-2.17
					c-2.01,1.01-3.58,3.4-4.19,5.48c-1.21,3.97,0.18,8.26,1.93,12.04c0.62,1.33,1.29,2.68,2.2,3.81c0.24,0.32,0.52,0.64,0.81,0.91
					c2.03,1.93,4.85,2.76,7.55,3.52c3.1,0.85,6.2,1.73,9.4,2.11c2.6,0.3,5.24,0.28,7.89,0.24c2.76-0.02,5.5-0.04,8.26-0.08
					c1.13,0,2.3-0.02,3.34-0.46c1.49-0.62,2.52-1.95,3.48-3.24c1.17-1.59,2.4-3.66,1.51-5.4c-0.56-1.11-1.77-1.67-2.92-2.15
					c-6.4-2.58-13.13-4.29-19.59-6.73C112.88,196.22,108.24,194.01,104.26,190.87z M112.76,170.07l2.05,4.23l7.55,8.44l13.81,5.14
					l8.44,2.3h6.99l10.89-1.99l7.95-3.97c-0.95,1.07-4.89,4.75-5.78,5.88c-2.2,2.78-3.34,6.26-4.41,9.63
					c-3.81,11.86-7.61,23.74-11.42,35.62c-0.89,2.78-1.79,5.56-2.46,8.4c-1.31-0.26-5.78-0.73-6.58-0.48
					c-11.3,3.52-19.61,13.33-30.57,17.78c-3.48,1.41-7.17,2.26-10.87,2.92l-0.95-5.72c0.91-0.12,1.83-0.4,2.7-0.68
					c1.71-0.52,3.4-1.05,5.11-1.57c3.24-1.01,6.83-2.28,8.38-5.32c0.18-0.32,0.32-0.7,0.26-1.07c-0.06-0.3-0.24-0.56-0.42-0.79
					c-1.27-1.71-2.46-2.78-4.57-3.02c-2.03-0.24-4.15,0.34-6.04,1.11c-2.4,0.97-4.91,1.03-7.45,1.03c-2.03-0.02-4.07-0.1-6.06,0.2
					c-2.56,0.38-3.5,1.13-3.5,2.07l-3.18-0.04c0.1-8.28,0.22-16.59,0.32-24.89c0.1-6.24,1.03-15.51,3.44-21.71
					c0.04-0.08,0.08-0.16,0.12-0.22c0.02-0.02,0.02-0.04,0.04-0.06c0.26-0.46,0.44-0.87,0.46-1.15c0-0.02,0-0.02,0-0.04
					c2.3-5.72,4.61-11.42,6.89-17.12c1.43-3.56,2.88-7.15,4.99-10.37c2.82-4.33,6.71-7.83,10.67-11.14h0.38
					c-0.08,0.32-0.04,0.68,0.12,0.99l2.7,5.54C112.76,170.03,112.76,170.05,112.76,170.07z"/>
				<path class="st3" d="M157.06,280.34l-0.32,0.56c-7.85,5.48-16.94,9.14-26.4,10.61c-2.05,0.32-4.11,0.54-6.1,1.05
					c-4.49,1.15-8.42,3.75-12.44,6.04c-3.77,2.13-7.67,4.01-11.68,5.64c-1.95,0.77-3.91,1.51-5.7,2.6c-3.54,2.17-7.43,4.53-8.5,8.96
					l-0.06,0.79l-4.03-0.26l-2.78-8.94l-3.97-14.04v-30.91h0.46c6.12,7.07,16.07,9.34,25.39,10.27c1.77,0.18,3.56,0.34,5.32,0.22
					c8.32-0.58,14.98-6.73,21.87-11.4c3.99-2.7,8.24-4.99,12.61-7.03c2.03-0.97,1.89-2.62,4.61-4.37c-0.02,0.5-0.02,1.01,0.02,1.51
					c0.2,2.26,1.01,4.43,1.83,6.58c1.01,2.68,2.05,5.38,3.06,8.06c1.05,2.74,2.09,5.48,3.42,8.1
					C155.16,277.32,155.06,278.65,157.06,280.34z"/>
				<path class="st5" d="M146.36,243.77c-0.26,1.03-0.48,2.07-0.66,3.12c-0.2,1.07-0.34,2.17-0.36,3.24
					c-2.72,1.75-2.58,3.4-4.61,4.37c-4.37,2.05-8.62,4.33-12.61,7.03c-6.89,4.67-13.55,10.83-21.87,11.4
					c-1.77,0.12-3.56-0.04-5.32-0.22c-9.32-0.93-19.27-3.2-25.39-10.27h-0.46v-0.5h0.44c2.42-0.72,5.01-1.03,7.53-0.91l-0.02,0.68
					c1.99,3.97,9.22,3.3,14.08,2.48c0.42-0.06,0.81-0.14,1.23-0.2c3.69-0.66,7.39-1.51,10.87-2.92
					c10.97-4.45,19.27-14.26,30.57-17.78C140.58,243.04,145.04,243.51,146.36,243.77z"/>
				<path class="st6" d="M132.25,159.47l-0.04,0.36c-5.3,0.02-10.61,1.59-15.08,4.45c-1.77,1.15-4.71,3.69-4.39,5.74l-2.7-5.54
					c-0.16-0.32-0.2-0.68-0.12-0.99c0.08-0.34,0.26-0.66,0.54-0.87l5.12-4.17c0.32-0.02,0.64-0.02,0.93-0.02c0.1,0,0.18,0,0.28,0
					h5.96L132.25,159.47z"/>
				<path class="st5" d="M115.59,158.43l-5.12,4.17c-0.28,0.22-0.46,0.54-0.54,0.87h-0.38c-3.95,3.32-7.85,6.81-10.67,11.14
					c-2.11,3.22-3.56,6.81-4.99,10.37c-2.28,5.7-4.59,11.4-6.89,17.12c-0.22,0.46-0.42,0.95-0.62,1.47
					c-0.85,1.41-2.38,3.14-3.16,3.36c-1.91,0.56-3.69,1.55-5.14,2.9l-0.44-0.04l0.06-0.75l0.36,0.02
					c4.37-16.73,11.8-33.21,24.73-45.27C106.09,160.72,110.93,158.67,115.59,158.43z"/>
				<path class="st5" d="M103.29,190.1c0.32,0.28,0.64,0.54,0.97,0.77c-1.17,1.65-2.36,3.28-3.56,4.93
					c-0.58,0.79-1.15,1.61-1.53,2.52c-0.28,0.72-0.44,1.47-0.6,2.22c-0.58,2.86-1.17,5.8-0.68,8.68l-0.06,0.04
					c-0.91-1.13-1.59-2.48-2.2-3.81c-1.75-3.77-3.14-8.06-1.93-12.04c0.62-2.09,2.19-4.47,4.19-5.48
					C100.6,186.58,101.18,188.29,103.29,190.1z"/>
				<path class="st3" d="M97.39,258.27l0.95,5.72c-0.42,0.06-0.81,0.14-1.23,0.2c-4.87,0.81-12.1,1.49-14.08-2.48l0.02-0.68
					c0.06,0,0.1,0,0.16,0c-0.68-3.34-0.64-6.75-0.58-10.15c0-0.24,0-0.46,0-0.7l3.18,0.04c0,1.71,3.16,4.03,5.34,5.68
					c1.15,0.85,2.34,1.73,3.69,2.17c0.3,0.1,0.64,0.18,0.95,0.22C96.34,258.35,96.87,258.33,97.39,258.27z"/>
				<path class="st5" d="M96.21,225.02c-0.04,0.38-0.3,0.75-0.52,1.05c-1.79,2.56-1.97,6.93-0.75,9.81l-0.04,0.28
					c-1.07-0.16-2.13-0.38-3.16-0.7c-1.35-0.44-2.74-1.07-3.54-2.26c-0.7-1.07-0.81-2.4-0.83-3.67c0-1.71-0.14-7.49,1.89-7.73
					C90.57,221.66,94.21,224.38,96.21,225.02z"/>
				<path class="st5" d="M95.35,248c0.32,2.96-1.87,7.13-0.42,9.73l-0.1,0.34c-1.35-0.44-2.54-1.31-3.69-2.17
					c-2.19-1.65-5.34-3.97-5.34-5.68c0-0.93,0.93-1.69,3.5-2.07c1.99-0.3,4.03-0.22,6.06-0.2V248H95.35z"/>
				<path class="st4" d="M83.23,206.94c0.77-0.22,2.3-1.95,3.16-3.36c-2.4,6.2-3.34,15.47-3.44,21.71
					c-0.1,8.3-0.22,16.61-0.32,24.89c0,0.24,0,0.46,0,0.7c-0.06,3.4-0.1,6.81,0.58,10.15c-0.06,0-0.1,0-0.16,0
					c-2.52-0.12-5.11,0.2-7.53,0.91h-0.44v-16.13l2.56-36.01l0.44,0.04C79.53,208.49,81.32,207.5,83.23,206.94z"/>
			</g>
		</g>
	</g>
</g>
</svg>
