<?xml version="1.0" encoding="utf-8"?>
<!-- Generator: Adobe Illustrator 26.3.1, SVG Export Plug-In . SVG Version: 6.00 Build 0)  -->
<svg version="1.1" id="Layer_1" xmlns="http://www.w3.org/2000/svg" xmlns:xlink="http://www.w3.org/1999/xlink" x="0px" y="0px"
	 viewBox="0 0 122.5 136.51" style="enable-background:new 0 0 122.5 136.51;" xml:space="preserve">
<style type="text/css">
	.st0{fill:none;stroke:#000000;stroke-miterlimit:10;}
</style>
<g id="Kanohi_Hau_Outline">
	<g>
		<g id="XMLID_00000033362982331377486070000009770335464136496785_">
			<g>
			</g>
			<g>
				<polyline class="st0" points="60.5,132.1 26.5,132 17.5,134 11.5,136 5.93,135.63 3.9,135.5 2.5,131 0.5,123.93 0.5,108.37 
					0.5,108.12 0.5,100 1.79,81.88 1.82,81.49 2.5,72 2.5,45 4.5,34 10.5,21 21.5,10 34.5,3 49,0.5 60.88,0.5 				"/>
				<polyline class="st0" points="60.5,132.1 62,132.1 96,132 105,134 111,136 115.64,135.7 118.61,135.5 120,131 122,123.93 
					122,108.12 122,100 120.71,81.89 120.66,81.29 120,72 120,45 118,34 112,21 101,10 88,3 73.5,0.5 61.63,0.5 60.88,0.5 				"/>
				<path class="st0" d="M61.5,17.38H45.69c-0.51,0-1.01-0.18-1.39-0.5l-0.62-0.53c-0.73-0.61-0.87-1.6-0.39-2.35
					c0.08-0.15,0.19-0.29,0.32-0.41l2.41-2.24c0.25-0.23,0.55-0.39,0.88-0.48l4.61-1.25c0.19-0.05,0.38-0.07,0.58-0.07h9.41"/>
				<path class="st0" d="M61.5,17.38h15.82c0.51,0,1.01-0.18,1.39-0.5l0.62-0.53c0.72-0.61,0.87-1.58,0.4-2.33
					c-0.08-0.16-0.19-0.3-0.33-0.43l-2.41-2.24c-0.25-0.23-0.55-0.39-0.89-0.48l-4.6-1.25c-0.19-0.05-0.38-0.07-0.58-0.07H61.5"/>
				<path class="st0" d="M44.29,118.9C41.24,114.54,41,108.29,41,102c0-13.25,9.07-24,20.25-24c11.19,0,20.25,10.75,20.25,24
					c0,6.46,0.62,13.01-2.61,17.38c-0.16,0.21-0.33,0.42-0.5,0.62c-3.65,4.19-11.66,6-17.14,6c-5.41,0-12.46-1.9-16.09-6
					C44.85,119.65,44.56,119.28,44.29,118.9z"/>
				<path class="st0" d="M46,102.35c0-10.58,6.94-19.15,15.49-19.15s15.48,8.57,15.48,19.15c0,5.4,0.52,10.88-2.38,14.37
					c-2.79,3.34-8.92,4.78-13.1,4.78c-4.14,0-9.53-1.51-12.31-4.78C46.22,113.23,46,107.81,46,102.35z"/>
				<path class="st0" d="M15.19,72.34c2,1.58,4.34,2.69,6.7,3.59c3.25,1.23,6.64,2.08,9.86,3.39c0.58,0.23,1.19,0.52,1.47,1.07
					c0.45,0.89-0.17,1.92-0.76,2.72c-0.48,0.65-1,1.33-1.75,1.63c-0.52,0.22-1.11,0.23-1.68,0.23c-1.39,0.02-2.77,0.03-4.16,0.05
					c-1.33,0.01-2.66,0.02-3.97-0.13c-1.61-0.19-3.17-0.63-4.73-1.06c-1.36-0.38-2.78-0.79-3.8-1.77c-0.15-0.14-0.29-0.3-0.41-0.46
					c-0.46-0.57-0.8-1.25-1.11-1.92c-0.88-1.9-1.58-4.05-0.97-6.06c0.31-1.04,1.1-2.25,2.11-2.76c1.36-0.68,1.65,0.19,2.71,1.09
					C14.86,72.09,15.02,72.22,15.19,72.34z"/>
				<path class="st0" d="M15.28,72.22c-0.03,0.04-0.06,0.08-0.09,0.12c-0.59,0.83-1.19,1.65-1.79,2.48
					c-0.29,0.41-0.58,0.81-0.77,1.27c-0.14,0.36-0.22,0.74-0.3,1.12c-0.29,1.44-0.59,2.92-0.34,4.37"/>
				<path class="st0" d="M107.83,72.34c-2,1.58-4.33,2.69-6.7,3.59c-3.25,1.23-6.64,2.08-9.86,3.39c-0.58,0.23-1.19,0.52-1.47,1.07
					c-0.45,0.89,0.17,1.92,0.76,2.72c0.49,0.65,1,1.33,1.75,1.63c0.53,0.22,1.11,0.23,1.68,0.23c1.39,0.02,2.78,0.03,4.17,0.05
					c1.32,0.01,2.65,0.02,3.96-0.13c1.61-0.19,3.17-0.63,4.73-1.06c1.36-0.38,2.78-0.79,3.8-1.77c0.15-0.14,0.29-0.3,0.41-0.46
					c0.46-0.57,0.81-1.25,1.12-1.92c0.87-1.9,1.57-4.05,0.97-6.06c-0.32-1.04-1.11-2.25-2.12-2.76c-1.36-0.68-1.65,0.19-2.71,1.09
					C108.16,72.09,108,72.22,107.83,72.34z"/>
				<path class="st0" d="M107.74,72.22c0.03,0.04,0.06,0.08,0.09,0.12c0.59,0.83,1.19,1.65,1.79,2.48c0.29,0.41,0.58,0.81,0.77,1.27
					c0.15,0.36,0.22,0.74,0.3,1.12c0.3,1.44,0.59,2.92,0.35,4.37"/>
				<path class="st0" d="M11.15,89.53c0.06,0.02,0.12,0.04,0.18,0.05c1.13,0.21,2.28,0.16,3.42,0.12c2.76-0.12,5.53-0.24,8.29-0.35
					c0.99-0.05,2.01-0.09,2.95,0.23c0.94,0.31,1.81,1.05,1.98,2.03c0.19,1.12-0.56,2.19-1.39,2.98c-0.26,0.25-0.54,0.5-0.87,0.67
					c-0.72,0.38-1.57,0.36-2.38,0.34c-3.15-0.07-6.31-0.15-9.47-0.23c-1.13-0.03-2.27-0.05-3.38-0.23
					c-0.54-0.07-1.07-0.19-1.59-0.35c-0.68-0.21-1.38-0.54-1.78-1.14c-0.35-0.53-0.41-1.21-0.42-1.85c0-0.85-0.07-3.77,0.95-3.88
					C8.3,87.84,10.15,89.22,11.15,89.53z"/>
				<path class="st0" d="M11.13,89.28c0.03,0.08,0.04,0.17,0.02,0.25c-0.02,0.19-0.15,0.37-0.27,0.53c-0.9,1.29-0.99,3.5-0.38,4.94"
					/>
				<path class="st0" d="M111.54,89.53c-0.06,0.02-0.12,0.04-0.18,0.05c-1.13,0.21-2.28,0.16-3.42,0.12
					c-2.76-0.12-5.53-0.24-8.29-0.35c-0.99-0.05-2.01-0.09-2.95,0.23c-0.94,0.31-1.81,1.05-1.98,2.03
					c-0.19,1.12,0.56,2.19,1.39,2.98c0.26,0.25,0.54,0.5,0.87,0.67c0.72,0.38,1.57,0.36,2.38,0.34c3.15-0.07,6.31-0.15,9.47-0.23
					c1.23-0.03,2.47-0.06,3.68-0.27c0.44-0.08,0.87-0.18,1.29-0.31c0.68-0.21,1.38-0.54,1.78-1.14c0.35-0.53,0.41-1.21,0.42-1.85
					c0-0.85,0.07-3.77-0.95-3.88C114.39,87.84,112.54,89.22,111.54,89.53z"/>
				<path class="st0" d="M111.56,89.28c-0.03,0.08-0.04,0.17-0.02,0.25c0.02,0.19,0.15,0.37,0.27,0.53c0.9,1.29,1.3,3.5,0.69,4.94"
					/>
				<path class="st0" d="M5.9,102.22c0,0.86,1.59,2.03,2.69,2.86c0.58,0.43,1.18,0.88,1.86,1.09c0.15,0.05,0.32,0.09,0.48,0.11
					c0.27,0.03,0.54,0.02,0.81-0.01c0.45-0.06,0.91-0.2,1.35-0.33c0.86-0.27,1.71-0.53,2.57-0.8c1.63-0.51,3.44-1.15,4.22-2.67
					c0.09-0.17,0.16-0.36,0.13-0.55c-0.03-0.15-0.12-0.27-0.21-0.4c-0.64-0.85-1.24-1.4-2.3-1.52c-1.02-0.11-2.09,0.17-3.04,0.56
					c-1.21,0.49-2.47,0.53-3.75,0.52c-1.02-0.01-2.05-0.05-3.05,0.1C6.37,101.37,5.9,101.75,5.9,102.22z"/>
				<path class="st0" d="M10.71,101.1c0.16,1.49-0.94,3.59-0.21,4.9"/>
				<path class="st0" d="M111.21,101.08c1.02-0.01,2.05-0.05,3.05,0.1c3.64,0.53,0.78,2.61-0.93,3.9c-0.55,0.41-1.13,0.85-1.78,1.07
					c-0.18,0.06-0.37,0.11-0.56,0.13c-0.73,0.09-1.46-0.13-2.16-0.34c-0.85-0.27-1.71-0.53-2.56-0.8c-1.64-0.51-3.44-1.15-4.23-2.67
					c-0.09-0.17-0.16-0.36-0.13-0.55c0.03-0.15,0.12-0.27,0.21-0.4c0.64-0.85,1.24-1.4,2.3-1.52c1.02-0.11,2.09,0.17,3.05,0.56
					C108.67,101.05,109.93,101.09,111.21,101.08z"/>
				<path class="st0" d="M111.21,101.1c-0.16,1.49,1.03,3.59,0.29,4.9"/>
				<path class="st0" d="M21.36,56H20.9l-0.01,0.01l-2.58,2.11c-0.14,0.11-0.23,0.26-0.27,0.43c-0.04,0.16-0.02,0.34,0.06,0.51
					l1.37,2.82L20.5,64l3.8,4.25l6.95,2.59L35.5,72h3.52l5.48-1l4-2l1.89-2.5l0.71-0.84c0.36-0.42,0.54-0.97,0.49-1.52l-0.04-0.54
					c-0.03-0.39-0.16-0.77-0.38-1.09L50.14,61l-0.01-0.01h-0.07L47.16,61c-0.43,0-0.87-0.07-1.28-0.21L40.5,59l-7-2l-4.22-0.47
					L24.5,56h-3"/>
				<path class="st0" d="M29.26,56.71c-2.67,0.02-5.34,0.8-7.59,2.24c-0.91,0.59-2.41,1.89-2.2,2.93c0.01,0.04,0.02,0.08,0.03,0.12"
					/>
				<path class="st0" d="M100.64,56h1.22c0.31,0,0.62,0.07,0.9,0.22c0.14,0.06,0.28,0.15,0.41,0.25l1.46,1.19
					c0.31,0.25,0.51,0.6,0.58,0.97c0.08,0.36,0.04,0.73-0.13,1.08l-1.56,3.21L102.99,64l-3.79,4.25l-6.96,2.59L87.99,72h-3.52
					l-5.48-1l-3.9-1.95L74.99,69l-1.88-2.5l-0.61-0.71c-0.43-0.5-0.64-1.16-0.58-1.82l0.02-0.32c0.04-0.42,0.18-0.83,0.42-1.18
					l0.86-1.26l0.15-0.22L76.39,61c0.4,0,0.8-0.06,1.18-0.19L82.99,59l7-2l4.23-0.47L98.99,56h1.51"/>
				<path class="st0" d="M94.24,56.71c2.67,0.02,5.33,0.8,7.59,2.24c0.92,0.6,1.97,2.87,1.69,3.97c0,0.03-0.01,0.05-0.02,0.08"/>
				<path class="st0" d="M73,61.06C65.4,61.69,57.53,62.3,50.14,61c-0.03,0-0.05,0-0.08-0.01c-0.02,0-0.04-0.01-0.06-0.01"/>
				<path class="st0" d="M6.5,78c-0.11,0.23-0.21,0.47-0.31,0.72c-1.21,3.13-1.68,7.8-1.73,10.96c-0.05,4.17-0.11,8.35-0.16,12.52
					c0,0.12,0,0.23,0,0.35c-0.03,1.71-0.05,3.43,0.29,5.11c-0.03,0-0.05,0-0.08,0c-1.27-0.06-2.57,0.1-3.79,0.46"/>
				<path class="st0" d="M6.27,78.6c0.13-0.23,0.22-0.44,0.23-0.58"/>
				<path class="st0" d="M2.01,81.9c0.73-0.68,1.63-1.19,2.59-1.46c0.39-0.11,1.17-1,1.59-1.72c0.03-0.03,0.05-0.06,0.06-0.09"/>
				<path class="st0" d="M21.5,56c-0.05,0-0.09,0-0.14,0c-0.15,0-0.31,0-0.47,0.01c-2.34,0.12-4.78,1.15-6.44,2.7
					C7.94,64.78,4.2,73.09,2,81.5"/>
				<path class="st0" d="M6.14,78.91c0.04-0.09,0.08-0.19,0.11-0.28c0.01-0.01,0.01-0.02,0.02-0.03c0.07-0.19,0.15-0.39,0.23-0.58
					c0-0.01,0-0.01,0-0.02c1.16-2.88,2.32-5.74,3.47-8.62c0.72-1.79,1.45-3.6,2.51-5.22c1.42-2.17,3.38-3.93,5.37-5.61"/>
				<path class="st0" d="M120.72,81.9l-0.01-0.01c-0.74-0.67-1.62-1.18-2.58-1.45c-0.41-0.12-1.09-0.54-1.42-0.97
					c-0.13-0.16-0.2-0.32-0.21-0.47c0.07,0.15,0.14,0.31,0.21,0.47c1.26,3.03,1.51,6.97,1.55,10.21c0.06,4.29,0.11,8.58,0.17,12.87
					c0.02,1.67,0.04,3.34-0.28,4.98c0,0.04-0.01,0.09-0.02,0.13c1.14-0.06,2.27,0.05,3.37,0.33c0.17,0.04,0.33,0.08,0.5,0.13"/>
				<path class="st0" d="M100.5,56c0.05,0,0.09,0,0.14,0c0.66,0,1.39,0.07,2.12,0.22c2.05,0.38,4.21,1.28,5.52,2.49
					c6.45,6.02,10.19,14.24,12.38,22.58c0.02,0.07,0.04,0.14,0.06,0.21"/>
				<path class="st0" d="M116.5,79c-1.27-3.17-2.47-6.44-3.75-9.62c-0.72-1.79-1.45-3.6-2.5-5.22c-1.36-2.08-2.64-4.9-5.04-5.53
					c-0.11-0.04-0.22-0.06-0.33-0.08"/>
				<path class="st0" d="M36.5,99c-0.03-0.01-0.07-0.02-0.12-0.03c-0.66-0.13-2.91-0.37-3.31-0.24c-5.69,1.77-9.87,6.71-15.39,8.95
					c-1.73,0.71-3.57,1.13-5.42,1.46c-0.23,0.04-0.45,0.08-0.67,0.12C9.14,109.67,5.5,110,4.5,108"/>
				<path class="st0" d="M0.73,108.37c3.08,3.56,8.09,4.7,12.78,5.17c0.89,0.09,1.79,0.17,2.68,0.11c4.19-0.29,7.54-3.39,11.01-5.74
					c2.01-1.36,4.15-2.51,6.35-3.54c1.02-0.48,0.95-1.32,2.32-2.2c0.04-0.03,0.08-0.05,0.12-0.08"/>
				<path class="st0" d="M48.5,69c-0.48,0.54-2.46,2.4-2.91,2.97c-1.11,1.4-1.68,3.14-2.22,4.84c-1.92,5.98-3.83,11.95-5.75,17.93
					c-0.45,1.4-0.9,2.8-1.24,4.23c-0.13,0.52-0.24,1.05-0.33,1.58c-0.1,0.53-0.17,1.08-0.18,1.62c-0.01,0.25-0.01,0.51,0.01,0.76
					c0.1,1.14,0.51,2.24,0.92,3.31c0.51,1.35,1.03,2.71,1.54,4.06c0.53,1.38,1.05,2.77,1.72,4.08c0.75,1.48,0.7,2.15,1.71,3
					c0.5,0.42,1.27,0.88,2.52,1.52c0.07,0.03,0.14,0.06,0.21,0.1"/>
				<path class="st0" d="M86.73,99c0.03-0.01,0.07-0.02,0.12-0.03c0.66-0.13,2.92-0.37,3.32-0.24c5.68,1.77,9.86,6.71,15.38,8.95
					c1.95,0.8,4.02,1.23,6.09,1.58c2.23,0.37,5.23-0.14,6.51-1.73c0.14-0.16,0.26-0.34,0.35-0.53"/>
				<path class="st0" d="M121.5,108c-4,5-7.09,5.07-11.77,5.54c-0.9,0.09-1.79,0.17-2.69,0.11c-4.18-0.29-7.53-3.39-11.01-5.74
					c-2-1.36-4.15-2.51-6.34-3.54c-1.02-0.48-0.96-1.32-2.33-2.2c-0.03-0.03-0.07-0.06-0.11-0.08"/>
				<path class="st0" d="M74.73,69c0.1,0,0.21,0.04,0.33,0.1c0.84,0.47,2.19,2.37,2.59,2.87c1.11,1.4,1.67,3.14,2.22,4.84
					c1.91,5.98,3.83,11.95,5.74,17.93c0.45,1.4,0.9,2.8,1.24,4.23c0.13,0.52,0.24,1.05,0.33,1.58c0.1,0.53,0.17,1.08,0.18,1.62
					c0.01,0.25,0.01,0.51-0.01,0.76c-0.09,1.14-0.5,2.24-0.91,3.31c-0.52,1.35-1.03,2.71-1.55,4.06c-0.52,1.38-1.05,2.77-1.72,4.08
					c-0.79,1.56-1.76,2.22-2.95,3.46c-0.41,0.43-0.84,0.93-1.3,1.56c-0.14,0.19-0.28,0.39-0.42,0.6"/>
				<path class="st0" d="M41.61,117.66c-3.95,2.76-8.53,4.61-13.29,5.34c-1.03,0.16-2.07,0.27-3.07,0.53
					c-2.26,0.58-4.24,1.89-6.26,3.04c-1.9,1.07-3.86,2.02-5.88,2.84c-0.98,0.39-1.97,0.76-2.87,1.31c-1.78,1.1-3.74,2.28-4.28,4.51"
					/>
				<path class="st0" d="M79.96,117.66c0.09,0.06,0.17,0.12,0.26,0.18c3.88,2.66,8.37,4.45,13.03,5.16
					c1.03,0.16,2.07,0.27,3.07,0.53c2.26,0.58,4.24,1.89,6.26,3.04c1.9,1.07,3.86,2.02,5.88,2.84c0.97,0.39,1.97,0.76,2.87,1.31
					c1.78,1.1,3.73,2.28,4.28,4.51"/>
				<path class="st0" d="M62,7h-8.5L50,7.44L45.5,9l-4,3l-2,2l-0.43,0.87c-0.34,0.68-0.21,1.49,0.33,2.03l0.1,0.1h1.21
					c0.49,0,0.93-0.27,1.15-0.71L42.5,15l0.79-1l0.32-0.41"/>
				<path class="st0" d="M62,7h8.01l3.5,0.44L78.01,9l4,3l2,2l0.43,0.87c0.34,0.68,0.21,1.49-0.33,2.03l-0.1,0.1h-1.2
					c-0.49,0-0.94-0.27-1.16-0.71L80.5,15l-0.77-0.98l-0.33-0.43"/>
			</g>
		</g>
	</g>
</g>
</svg>
