<?xml version="1.0" encoding="utf-8"?>
<!-- Generator: Adobe Illustrator 26.3.1, SVG Export Plug-In . SVG Version: 6.00 Build 0)  -->
<svg version="1.1" id="Layer_1" xmlns="http://www.w3.org/2000/svg" xmlns:xlink="http://www.w3.org/1999/xlink" x="0px" y="0px"
	 viewBox="0 0 122 136" style="enable-background:new 0 0 122 136;" xml:space="preserve">
<style type="text/css">
	.st0{fill:#F90303;}
	.st1{fill:#E81818;}
	.st2{fill:#DB1D14;}
	.st3{fill:#BC2820;}
</style>
<g id="Kanohi_Hau_Red">
	<g>
		<g id="XMLID_00000090974155968202241230000006312637879846789515_">
			<g>
				<path class="st0" d="M121.75,107.86v15.81l-2,7.08l-1.39,4.5l-2.97,0.2l-0.03-0.47c-0.55-2.23-2.5-3.42-4.28-4.51
					c-0.9-0.55-1.9-0.92-2.87-1.32c-2.02-0.82-3.98-1.77-5.88-2.84c-2.02-1.15-4-2.45-6.26-3.04c-1-0.26-2.04-0.37-3.07-0.53
					c-4.66-0.71-9.15-2.49-13.03-5.15c1.19-1.25,2.16-1.91,2.95-3.46c0.67-1.32,1.2-2.7,1.72-4.08c0.52-1.36,1.03-2.71,1.55-4.07
					c0.41-1.07,0.82-2.16,0.91-3.31c0.02-0.25,0.02-0.5,0.01-0.75c1.37,0.88,1.31,1.71,2.33,2.19c2.19,1.03,4.34,2.18,6.34,3.54
					c3.48,2.36,6.83,5.45,11.01,5.74c0.9,0.06,1.79-0.01,2.69-0.1c4.68-0.48,7.77-0.54,11.77-5.54l0.01-0.02
					C121.42,107.77,121.59,107.81,121.75,107.86z"/>
				<path class="st1" d="M120.46,81.63l1.29,18.12v8.11c-0.16-0.05-0.33-0.09-0.49-0.13c-1.1-0.28-2.24-0.39-3.38-0.33
					c0.01-0.03,0.01-0.07,0.02-0.1c0.32-1.64,0.3-3.33,0.28-5.01c-0.06-4.29-0.11-8.58-0.17-12.87c-0.04-3.24-0.29-7.19-1.56-10.22
					c0.33,0.44,1.02,0.86,1.43,0.98C118.84,80.46,119.72,80.96,120.46,81.63z"/>
				<path class="st2" d="M111.39,109c2.22,0.37,5.2-0.13,6.51-1.7c-0.01,0.03-0.01,0.07-0.02,0.1c1.14-0.06,2.28,0.05,3.38,0.33
					l-0.01,0.02c-4,5-7.09,5.06-11.77,5.54c-0.9,0.09-1.79,0.16-2.69,0.1c-4.18-0.29-7.53-3.38-11.01-5.74
					c-2-1.36-4.15-2.51-6.34-3.54c-1.02-0.48-0.96-1.31-2.33-2.19c-0.01-0.55-0.08-1.1-0.18-1.63c-0.09-0.53-0.2-1.05-0.32-1.57
					c0.67-0.13,2.91-0.37,3.31-0.25c5.68,1.77,9.86,6.72,15.38,8.96C107.25,108.22,109.32,108.65,111.39,109z"/>
				<path class="st2" d="M114.01,100.92c3.64,0.54,0.78,2.61-0.93,3.9c-0.56,0.42-1.14,0.85-1.79,1.07l-0.04-0.14
					c0.74-1.32-0.45-3.41-0.29-4.91v-0.02C111.98,100.81,113.01,100.77,114.01,100.92z"/>
				<path class="st2" d="M115.33,93.39c-0.4,0.6-1.1,0.93-1.78,1.14c-0.42,0.13-0.85,0.23-1.29,0.31l-0.01-0.09
					c0.61-1.45,0.21-3.66-0.69-4.94c-0.12-0.16-0.24-0.35-0.26-0.53c1.01-0.32,2.84-1.69,3.5-1.62c1.02,0.11,0.95,3.03,0.95,3.88
					C115.74,92.18,115.68,92.86,115.33,93.39z"/>
				<path class="st2" d="M112.9,73.37c0.6,2-0.1,4.15-0.97,6.05c-0.31,0.67-0.66,1.35-1.12,1.92l-0.02-0.02
					c0.24-1.44-0.05-2.92-0.35-4.36c-0.08-0.38-0.15-0.77-0.3-1.12c-0.19-0.46-0.48-0.87-0.77-1.27c-0.6-0.83-1.2-1.66-1.79-2.49
					c0.17-0.12,0.33-0.25,0.49-0.39c1.06-0.9,1.35-1.77,2.71-1.08C111.79,71.11,112.58,72.32,112.9,73.37z"/>
				<path class="st2" d="M108.03,58.46c6.45,6.02,10.19,14.23,12.38,22.58l0.05,0.59c-0.74-0.67-1.62-1.17-2.58-1.45
					c-0.41-0.12-1.1-0.54-1.43-0.98c0-0.01,0-0.01-0.01-0.01c-0.06-0.15-0.12-0.3-0.19-0.44c-1.27-3.18-2.47-6.45-3.75-9.63
					c-0.72-1.79-1.45-3.59-2.5-5.21c-1.36-2.09-2.64-4.91-5.04-5.54c-0.08-0.37-0.27-0.72-0.58-0.97l-1.46-1.19
					c-0.12-0.1-0.26-0.19-0.4-0.25C104.57,56.34,106.72,57.24,108.03,58.46z"/>
				<path class="st3" d="M101.58,58.7c-2.26-1.44-4.92-2.23-7.59-2.25l-0.02-0.17l4.77-0.53h1.51c0.06,0,0.11,0,0.17,0
					c0.66,0,1.37,0.07,2.1,0.21c0.14,0.06,0.28,0.15,0.4,0.25l1.46,1.19c0.31,0.25,0.5,0.6,0.58,0.97c0.08,0.35,0.04,0.73-0.13,1.08
					l-1.56,3.21C103.54,61.56,102.5,59.28,101.58,58.7z"/>
				<path class="st2" d="M44.04,118.65c-3.05-4.37-3.29-10.61-3.29-16.9c0-13.26,9.07-24,20.25-24c11.19,0,20.25,10.74,20.25,24
					c0,6.45,0.62,13-2.61,17.38c-0.16,0.21-0.33,0.42-0.5,0.62c-3.65,4.18-11.66,6-17.14,6c-5.41,0-12.46-1.9-16.09-6
					C44.6,119.4,44.31,119.03,44.04,118.65z M74.34,116.46c2.9-3.48,2.38-8.97,2.38-14.37c0-10.58-6.93-19.15-15.48-19.15
					s-15.49,8.57-15.49,19.15c0,5.46,0.22,10.88,3.18,14.37c2.78,3.27,8.17,4.79,12.31,4.79C65.42,121.25,71.55,119.8,74.34,116.46z
					"/>
				<path class="st3" d="M78.67,119.15c0.46-0.63,0.89-1.13,1.3-1.56c3.88,2.66,8.37,4.44,13.03,5.15c1.03,0.16,2.07,0.27,3.07,0.53
					c2.26,0.59,4.24,1.89,6.26,3.04c1.9,1.07,3.86,2.02,5.88,2.84c0.97,0.4,1.97,0.77,2.87,1.32c1.78,1.09,3.73,2.28,4.28,4.51
					l0.03,0.47l-4.64,0.3l-6-2l-9-2l-34,0.09h-1.5l-34-0.09l-9,2l-6,2l-5.57-0.37l0.03-0.4c0.54-2.23,2.5-3.42,4.28-4.51
					c0.9-0.55,1.89-0.92,2.87-1.32c2.02-0.82,3.98-1.77,5.88-2.84c2.02-1.15,4-2.45,6.26-3.04c1-0.26,2.04-0.37,3.07-0.53
					c4.76-0.73,9.34-2.57,13.29-5.33l0.16-0.29c0.5,0.43,1.27,0.89,2.52,1.53c0.27,0.38,0.56,0.75,0.87,1.1
					c3.63,4.1,10.68,6,16.09,6c5.48,0,13.49-1.82,17.14-6c0.17-0.2,0.34-0.41,0.5-0.62L78.67,119.15z"/>
				<path class="st0" d="M76.72,102.09c0,5.4,0.52,10.89-2.38,14.37c-2.79,3.34-8.92,4.79-13.1,4.79c-4.14,0-9.53-1.52-12.31-4.79
					c-2.96-3.49-3.18-8.91-3.18-14.37c0-10.58,6.94-19.15,15.49-19.15S76.72,91.51,76.72,102.09z"/>
				<path class="st0" d="M111.93,79.42c0.87-1.9,1.57-4.05,0.97-6.05c-0.32-1.05-1.11-2.26-2.12-2.76
					c-1.36-0.69-1.65,0.18-2.71,1.08c-0.16,0.14-0.32,0.27-0.49,0.39c-2,1.59-4.33,2.69-6.7,3.59c-3.25,1.23-6.64,2.08-9.86,3.39
					c-0.58,0.23-1.19,0.52-1.47,1.07c-0.45,0.89,0.17,1.92,0.76,2.72c0.49,0.65,1,1.33,1.75,1.64c0.53,0.21,1.11,0.22,1.68,0.23
					c1.39,0.01,2.78,0.02,4.17,0.04c1.32,0.01,2.65,0.02,3.96-0.13c1.61-0.19,3.17-0.62,4.73-1.06c1.36-0.38,2.78-0.79,3.8-1.77
					c0.15-0.14,0.29-0.29,0.41-0.46C111.27,80.77,111.62,80.09,111.93,79.42z M115.75,91.54c0-0.85,0.07-3.77-0.95-3.88
					c-0.66-0.07-2.49,1.3-3.5,1.62c-0.07,0.02-0.13,0.04-0.19,0.05c-1.13,0.2-2.28,0.16-3.42,0.11c-2.76-0.12-5.53-0.24-8.29-0.35
					c-0.99-0.04-2.01-0.08-2.95,0.23c-0.94,0.31-1.81,1.05-1.98,2.03c-0.19,1.13,0.56,2.19,1.39,2.98c0.26,0.26,0.54,0.5,0.87,0.67
					c0.72,0.38,1.57,0.37,2.38,0.35c3.15-0.08,6.31-0.16,9.47-0.24c1.23-0.03,2.47-0.06,3.68-0.27c0.44-0.08,0.87-0.18,1.29-0.31
					c0.68-0.21,1.38-0.54,1.78-1.14C115.68,92.86,115.74,92.18,115.75,91.54z M112.5,69.12c1.28,3.18,2.48,6.45,3.75,9.63
					c0.01,0.14,0.08,0.29,0.19,0.44c0.01,0,0.01,0,0.01,0.01c1.27,3.03,1.52,6.98,1.56,10.22c0.06,4.29,0.11,8.58,0.17,12.87
					c0.02,1.68,0.04,3.37-0.28,5.01c-1.31,1.57-4.29,2.07-6.51,1.7c-2.07-0.35-4.14-0.78-6.09-1.57c-5.52-2.24-9.7-7.19-15.38-8.96
					c-0.4-0.12-2.64,0.12-3.31,0.25c-0.35-1.44-0.8-2.84-1.25-4.24c-1.91-5.98-3.83-11.95-5.74-17.93c-0.55-1.7-1.11-3.44-2.22-4.84
					c-0.4-0.5-1.75-2.39-2.59-2.86l0.03-0.05l3.9,1.95l5.48,1h3.52l4.25-1.16L98.95,68l3.79-4.25l0.53-1.09l1.56-3.21
					c0.17-0.35,0.21-0.73,0.13-1.08c2.4,0.63,3.68,3.45,5.04,5.54C111.05,65.53,111.78,67.33,112.5,69.12z M113.08,104.82
					c1.71-1.29,4.57-3.36,0.93-3.9c-1-0.15-2.03-0.11-3.05-0.1c-1.27,0.01-2.54-0.02-3.74-0.51c-0.96-0.39-2.03-0.68-3.05-0.56
					c-1.06,0.12-1.66,0.66-2.3,1.52c-0.09,0.12-0.18,0.25-0.21,0.39c-0.03,0.19,0.04,0.38,0.13,0.55c0.79,1.52,2.59,2.16,4.23,2.67
					c0.85,0.27,1.71,0.53,2.56,0.8c0.7,0.22,1.43,0.44,2.16,0.34c0.19-0.02,0.37-0.07,0.55-0.13
					C111.94,105.67,112.52,105.24,113.08,104.82z"/>
				<path class="st1" d="M35.62,101.92c0.01-0.55,0.08-1.1,0.18-1.63c0.09-0.53,0.2-1.05,0.33-1.57c0.34-1.44,0.79-2.84,1.24-4.24
					c1.92-5.98,3.83-11.95,5.75-17.93c0.54-1.7,1.11-3.44,2.22-4.84c0.45-0.57,2.43-2.42,2.91-2.96l1.89-2.5l0.71-0.84
					c0.36-0.43,0.54-0.97,0.49-1.53l-0.04-0.54c-0.03-0.39-0.16-0.77-0.38-1.09l-1.03-1.51c7.39,1.3,15.26,0.69,22.86,0.06
					l0.22,0.15l-0.86,1.26c-0.24,0.35-0.38,0.76-0.42,1.18l-0.02,0.33c-0.06,0.66,0.15,1.31,0.58,1.81l0.61,0.72l1.88,2.5l0.1,0.05
					l-0.03,0.05c0.84,0.47,2.19,2.36,2.59,2.86c1.11,1.4,1.67,3.14,2.22,4.84c1.91,5.98,3.83,11.95,5.74,17.93
					c0.45,1.4,0.9,2.8,1.25,4.24c0.12,0.52,0.23,1.04,0.32,1.57c0.1,0.53,0.17,1.08,0.18,1.63c0.01,0.25,0.01,0.5-0.01,0.75
					c-0.09,1.15-0.5,2.24-0.91,3.31c-0.52,1.36-1.03,2.71-1.55,4.07c-0.52,1.38-1.05,2.76-1.72,4.08c-0.79,1.55-1.76,2.21-2.95,3.46
					c-0.41,0.43-0.84,0.93-1.3,1.56l-0.03-0.02c3.23-4.38,2.61-10.93,2.61-17.38c0-13.26-9.06-24-20.25-24
					c-11.18,0-20.25,10.74-20.25,24c0,6.29,0.24,12.53,3.29,16.9c-1.25-0.64-2.02-1.1-2.52-1.53c-1.01-0.85-0.96-1.51-1.71-2.99
					c-0.67-1.32-1.19-2.7-1.72-4.08c-0.51-1.36-1.03-2.71-1.54-4.07c-0.41-1.07-0.82-2.16-0.92-3.31
					C35.61,102.42,35.61,102.17,35.62,101.92z"/>
				<path class="st0" d="M44.05,16.62c0.38,0.32,0.88,0.5,1.39,0.5h15.81h15.82c0.51,0,1.01-0.18,1.39-0.5l0.62-0.52
					c0.72-0.61,0.86-1.58,0.41-2.33l0.76,0.98l1.15,1.28c0.22,0.44,0.67,0.72,1.16,0.72h1.2l0.1-0.11c0.54-0.53,0.67-1.35,0.33-2.03
					l-0.43-0.86l-2-2l-4-3l-4.5-1.57l-3.5-0.43h-8.01h-8.5l-3.5,0.43l-4.5,1.57l-4,3l-2,2l-0.43,0.86c-0.34,0.68-0.21,1.5,0.33,2.03
					l0.1,0.11h1.21c0.49,0,0.93-0.28,1.15-0.72l0.64-1.28l0.78-1c-0.47,0.75-0.33,1.73,0.4,2.35L44.05,16.62z M2.25,71.75v-27l2-11
					l6-13l11-11l13-7l14.5-2.5h11.88h0.75h11.87l14.5,2.5l13,7l11,11l6,13l2,11v27l0.66,9.29c-2.19-8.35-5.93-16.56-12.38-22.58
					c-1.31-1.22-3.46-2.12-5.51-2.5c-0.28-0.14-0.59-0.21-0.91-0.21h-1.19c-0.06,0-0.11,0-0.17,0h-1.51l-4.77,0.53l-4.23,0.47l-7,2
					l-5.42,1.8c-0.38,0.13-0.78,0.2-1.18,0.19l-3.02-0.01l-0.15,0.22l-0.22-0.15c-7.6,0.63-15.47,1.24-22.86-0.06l-0.01-0.01h-0.07
					l-2.9,0.01c-0.43,0.01-0.87-0.06-1.28-0.2l-5.38-1.79l-7-2l-4.22-0.47l-4.78-0.53h-3c-0.06,0-0.11,0-0.17,0h-0.43l-0.01,0.01
					c-2.35,0.12-4.79,1.15-6.44,2.7C7.69,64.53,3.95,72.83,1.75,81.25l-0.18-0.01L2.25,71.75z"/>
				<path class="st2" d="M49.75,7.18l3.5-0.43h8.5h8.01l3.5,0.43l4.5,1.57l4,3l2,2l0.43,0.86c0.34,0.68,0.21,1.5-0.33,2.03
					l-0.1,0.11h-1.2c-0.49,0-0.94-0.28-1.16-0.72l-1.15-1.28l-0.76-0.98c-0.08-0.16-0.2-0.31-0.34-0.44l-2.41-2.24
					c-0.25-0.22-0.55-0.39-0.89-0.48l-4.6-1.24c-0.19-0.06-0.38-0.08-0.58-0.08h-9.42h-9.41c-0.2,0-0.39,0.02-0.58,0.08l-4.61,1.24
					c-0.33,0.09-0.63,0.26-0.88,0.48l-2.41,2.24c-0.14,0.13-0.25,0.27-0.33,0.42l-0.78,1l-0.64,1.28c-0.22,0.44-0.66,0.72-1.15,0.72
					h-1.21l-0.1-0.11c-0.54-0.53-0.67-1.35-0.33-2.03l0.43-0.86l2-2l4-3L49.75,7.18z"/>
				<path class="st0" d="M9.99,130.47c-1.78,1.09-3.74,2.28-4.28,4.51l-0.03,0.4l-2.03-0.13l-1.4-4.5l-2-7.08v-15.56h0.23
					c3.08,3.57,8.09,4.7,12.78,5.18c0.89,0.09,1.79,0.16,2.68,0.1c4.19-0.29,7.54-3.38,11.01-5.74c2.01-1.36,4.15-2.51,6.35-3.54
					c1.02-0.48,0.95-1.31,2.32-2.19c-0.01,0.25-0.01,0.5,0.01,0.75c0.1,1.15,0.51,2.24,0.92,3.31c0.51,1.36,1.03,2.71,1.54,4.07
					c0.53,1.38,1.05,2.76,1.72,4.08c0.75,1.48,0.7,2.14,1.71,2.99l-0.16,0.29c-3.95,2.76-8.53,4.6-13.29,5.33
					c-1.03,0.16-2.07,0.27-3.07,0.53c-2.26,0.59-4.24,1.89-6.26,3.04c-1.9,1.07-3.86,2.02-5.88,2.84
					C11.88,129.55,10.89,129.92,9.99,130.47z"/>
				<path class="st3" d="M24.25,55.75l4.78,0.53l-0.02,0.17c-2.67,0.02-5.34,0.81-7.59,2.25c-0.89,0.57-2.37,1.85-2.21,2.89
					l-1.36-2.79c-0.08-0.17-0.1-0.34-0.06-0.51c0.04-0.17,0.13-0.32,0.27-0.43l2.58-2.1c0.14-0.01,0.29-0.01,0.44-0.01
					c0.06,0,0.11,0,0.17,0H24.25z"/>
				<path class="st2" d="M12.38,75.84c-0.14,0.35-0.22,0.74-0.3,1.12c-0.29,1.44-0.59,2.92-0.34,4.36l-0.03,0.02
					c-0.46-0.57-0.81-1.25-1.11-1.92c-0.88-1.9-1.58-4.05-0.97-6.05c0.31-1.05,1.1-2.26,2.11-2.76c1.36-0.69,1.65,0.18,2.71,1.08
					c0.16,0.14,0.32,0.27,0.49,0.39c-0.59,0.83-1.19,1.66-1.79,2.49C12.86,74.97,12.57,75.38,12.38,75.84z"/>
				<path class="st2" d="M8.64,94.53c-0.68-0.21-1.38-0.54-1.78-1.14c-0.35-0.53-0.41-1.21-0.42-1.85c0-0.85-0.07-3.77,0.95-3.88
					c0.66-0.07,2.49,1.3,3.5,1.62c-0.02,0.18-0.14,0.37-0.26,0.53c-0.9,1.28-0.99,3.49-0.38,4.94l-0.02,0.13
					C9.69,94.81,9.16,94.69,8.64,94.53z"/>
				<path class="st2" d="M8.34,104.82c-1.1-0.83-2.69-2-2.69-2.86c0-0.47,0.47-0.85,1.76-1.04c1-0.15,2.03-0.11,3.05-0.1v0.02
					c0.16,1.5-0.94,3.59-0.21,4.91l-0.05,0.16C9.52,105.7,8.92,105.26,8.34,104.82z"/>
				<path class="st0" d="M14.94,72.08c-0.17-0.12-0.33-0.25-0.49-0.39c-1.06-0.9-1.35-1.77-2.71-1.08c-1.01,0.5-1.8,1.71-2.11,2.76
					c-0.61,2,0.09,4.15,0.97,6.05c0.3,0.67,0.65,1.35,1.11,1.92c0.12,0.17,0.26,0.32,0.41,0.46c1.02,0.98,2.44,1.39,3.8,1.77
					c1.56,0.44,3.12,0.87,4.73,1.06c1.31,0.15,2.64,0.14,3.97,0.13c1.39-0.02,2.77-0.03,4.16-0.04c0.57-0.01,1.16-0.02,1.68-0.23
					c0.75-0.31,1.27-0.99,1.75-1.64c0.59-0.8,1.21-1.83,0.76-2.72c-0.28-0.55-0.89-0.84-1.47-1.07c-3.22-1.31-6.61-2.16-9.86-3.39
					C19.28,74.77,16.94,73.67,14.94,72.08z M5.99,78.4c0.15-0.26,0.25-0.49,0.26-0.64c1.16-2.87,2.32-5.76,3.47-8.64
					c0.72-1.79,1.45-3.59,2.51-5.21c1.42-2.18,3.38-3.94,5.37-5.62h0.19c-0.04,0.17-0.02,0.34,0.06,0.51l1.36,2.79
					c0.01,0.01,0.01,0.02,0.01,0.03l1.03,2.13l3.8,4.25L31,70.59l4.25,1.16h3.52l5.48-1l4-2c-0.48,0.54-2.46,2.39-2.91,2.96
					c-1.11,1.4-1.68,3.14-2.22,4.84c-1.92,5.98-3.83,11.95-5.75,17.93c-0.45,1.4-0.9,2.8-1.24,4.24c-0.66-0.13-2.91-0.37-3.31-0.25
					c-5.69,1.77-9.87,6.72-15.39,8.96c-1.73,0.7-3.57,1.12-5.41,1.45l-0.51-2.87c0.45-0.06,0.89-0.19,1.33-0.33
					c0.86-0.27,1.71-0.53,2.57-0.8c1.63-0.51,3.44-1.15,4.22-2.67c0.09-0.17,0.16-0.36,0.13-0.55c-0.03-0.14-0.12-0.27-0.21-0.39
					c-0.64-0.86-1.24-1.4-2.3-1.52c-1.02-0.12-2.09,0.17-3.04,0.56c-1.21,0.49-2.47,0.52-3.75,0.51c-1.02-0.01-2.05-0.05-3.05,0.1
					c-1.29,0.19-1.76,0.57-1.76,1.04l-1.6-0.02c0.05-4.17,0.11-8.35,0.16-12.52c0.05-3.15,0.52-7.83,1.73-10.95
					C5.96,78.44,5.98,78.42,5.99,78.4z M10.89,89.28c-1.01-0.32-2.84-1.69-3.5-1.62c-1.02,0.11-0.95,3.03-0.95,3.88
					c0.01,0.64,0.07,1.32,0.42,1.85c0.4,0.6,1.1,0.93,1.78,1.14c0.52,0.16,1.05,0.28,1.59,0.35c1.11,0.18,2.25,0.2,3.38,0.23
					c3.16,0.08,6.32,0.16,9.47,0.24c0.81,0.02,1.66,0.03,2.38-0.35c0.33-0.17,0.61-0.41,0.87-0.67c0.83-0.79,1.58-1.85,1.39-2.98
					c-0.17-0.98-1.04-1.72-1.98-2.03c-0.94-0.31-1.96-0.27-2.95-0.23c-2.76,0.11-5.53,0.23-8.29,0.35
					c-1.14,0.05-2.29,0.09-3.42-0.11C11.02,89.32,10.96,89.3,10.89,89.28z"/>
				<path class="st0" d="M5.65,101.96c0,0.86,1.59,2.03,2.69,2.86c0.58,0.44,1.18,0.88,1.86,1.09c0.15,0.05,0.32,0.09,0.48,0.11
					c0.28,0.04,0.55,0.03,0.83-0.01l0.51,2.87c-0.23,0.04-0.45,0.08-0.68,0.12c-2.45,0.41-6.09,0.75-7.09-1.25l0.01-0.35
					c0.03,0,0.05,0,0.08,0c-0.34-1.67-0.32-3.4-0.29-5.11c0-0.12,0-0.23,0-0.35L5.65,101.96z"/>
				<path class="st1" d="M4.35,80.18c0.39-0.11,1.17-1,1.59-1.71c-1.21,3.12-1.68,7.8-1.73,10.95c-0.05,4.17-0.11,8.35-0.16,12.52
					c0,0.12,0,0.23,0,0.35C4.02,104,4,105.73,4.34,107.4c-0.03,0-0.05,0-0.08,0c-1.27-0.06-2.57,0.1-3.79,0.46H0.25v-8.11
					l1.29-18.13l0.22,0.02C2.49,80.96,3.39,80.46,4.35,80.18z"/>
				<path class="st2" d="M4.25,107.75c1,2,4.64,1.66,7.09,1.25c0.23-0.04,0.45-0.08,0.68-0.12c1.84-0.33,3.68-0.75,5.41-1.45
					c5.52-2.24,9.7-7.19,15.39-8.96c0.4-0.12,2.65,0.12,3.31,0.25c-0.13,0.52-0.24,1.04-0.33,1.57c-0.1,0.53-0.17,1.08-0.18,1.63
					c-1.37,0.88-1.3,1.71-2.32,2.19c-2.2,1.03-4.34,2.18-6.35,3.54c-3.47,2.36-6.82,5.45-11.01,5.74c-0.89,0.06-1.79-0.01-2.68-0.1
					c-4.69-0.48-9.7-1.61-12.78-5.18H0.25v-0.25h0.22c1.22-0.36,2.52-0.52,3.79-0.46L4.25,107.75z"/>
				<path class="st2" d="M1.75,81.25c2.2-8.42,5.94-16.72,12.45-22.79c1.65-1.55,4.09-2.58,6.44-2.7l-2.58,2.1
					c-0.14,0.11-0.23,0.26-0.27,0.43H17.6c-1.99,1.68-3.95,3.44-5.37,5.62c-1.06,1.62-1.79,3.42-2.51,5.21
					C8.57,72,7.41,74.89,6.25,77.76c-0.11,0.22-0.21,0.46-0.31,0.71c-0.42,0.71-1.2,1.6-1.59,1.71c-0.96,0.28-1.86,0.78-2.59,1.46
					l-0.22-0.02l0.03-0.38L1.75,81.25z"/>
			</g>
			<g>
			</g>
		</g>
	</g>
</g>
</svg>
